<svg width="32" height="32" viewBox="0 0 32 32" fill="none" xmlns="http://www.w3.org/2000/svg">
<path d="M27.9848 16.3174L29.4568 13.7734C29.6337 13.4673 29.6818 13.1035 29.5905 12.762C29.4993 12.4204 29.2761 12.1291 28.9701 11.9521L26.4234 10.4801V7.54675C26.4234 7.19313 26.283 6.85399 26.0329 6.60394C25.7829 6.35389 25.4437 6.21342 25.0901 6.21342H22.1581L20.6874 3.66809C20.5098 3.36264 20.2191 3.13943 19.8781 3.04675C19.709 3.00091 19.5325 2.98909 19.3587 3.01197C19.185 3.03486 19.0176 3.092 18.8661 3.18009L16.3194 4.65209L13.7728 3.17875C13.4665 3.00195 13.1026 2.95404 12.761 3.04555C12.4195 3.13707 12.1282 3.36052 11.9514 3.66675L10.4794 6.21342H7.54743C7.19381 6.21342 6.85467 6.35389 6.60462 6.60394C6.35457 6.85399 6.2141 7.19313 6.2141 7.54675V10.4788L3.66743 11.9508C3.51547 12.0382 3.38229 12.1547 3.27552 12.2938C3.16875 12.4328 3.09051 12.5916 3.04528 12.7609C3.00006 12.9303 2.98875 13.1069 3.012 13.2807C3.03525 13.4545 3.0926 13.6219 3.18076 13.7734L4.65276 16.3174L3.18076 18.8614C3.00475 19.1678 2.95699 19.5313 3.04791 19.8727C3.13882 20.2142 3.36104 20.5058 3.6661 20.6841L6.21277 22.1561V25.0881C6.21277 25.4417 6.35324 25.7808 6.60329 26.0309C6.85334 26.2809 7.19248 26.4214 7.5461 26.4214H10.4794L11.9514 28.9681C12.0695 29.1699 12.238 29.3375 12.4405 29.4543C12.6429 29.5712 12.8723 29.6334 13.1061 29.6348C13.3381 29.6348 13.5688 29.5734 13.7741 29.4548L16.3181 27.9828L18.8648 29.4548C19.1709 29.6313 19.5346 29.6792 19.8761 29.588C20.2175 29.4968 20.5088 29.2738 20.6861 28.9681L22.1568 26.4214H25.0888C25.4424 26.4214 25.7815 26.2809 26.0316 26.0309C26.2816 25.7808 26.4221 25.4417 26.4221 25.0881V22.1561L28.9688 20.6841C29.1205 20.5964 29.2534 20.4797 29.36 20.3407C29.4665 20.2016 29.5446 20.0429 29.5898 19.8736C29.635 19.7043 29.6464 19.5278 29.6234 19.3541C29.6003 19.1805 29.5432 19.013 29.4554 18.8614L27.9848 16.3174ZM12.9848 9.63742C13.5154 9.6376 14.0242 9.84855 14.3993 10.2239C14.7743 10.5992 14.9849 11.1081 14.9848 11.6388C14.9846 12.1694 14.7736 12.6782 14.3983 13.0532C14.023 13.4283 13.514 13.6389 12.9834 13.6388C12.4528 13.6386 11.944 13.4276 11.5689 13.0523C11.1939 12.677 10.9833 12.168 10.9834 11.6374C10.9836 11.1068 11.1946 10.598 11.5699 10.2229C11.9452 9.84786 12.4542 9.63724 12.9848 9.63742V9.63742ZM13.3848 22.4374L11.2514 20.8388L19.2514 10.1721L21.3848 11.7708L13.3848 22.4374ZM19.6514 22.9708C19.3887 22.9707 19.1286 22.9188 18.8859 22.8182C18.6432 22.7176 18.4227 22.5701 18.2369 22.3843C18.0512 22.1985 17.9039 21.9779 17.8035 21.7351C17.703 21.4923 17.6513 21.2321 17.6514 20.9694C17.6515 20.7067 17.7034 20.4465 17.804 20.2038C17.9046 19.9611 18.052 19.7406 18.2379 19.5549C18.4237 19.3692 18.6443 19.2219 18.8871 19.1215C19.1299 19.021 19.39 18.9693 19.6528 18.9694C20.1834 18.9696 20.6922 19.1805 21.0673 19.5559C21.4423 19.9312 21.6529 20.4401 21.6528 20.9708C21.6526 21.5014 21.4416 22.0102 21.0663 22.3852C20.691 22.7603 20.182 22.9709 19.6514 22.9708V22.9708Z" fill="url(#paint0_linear_34_762)"/>
<defs>
<linearGradient id="paint0_linear_34_762" x1="29.6357" y1="16.3174" x2="3.00024" y2="16.3174" gradientUnits="userSpaceOnUse">
<stop stop-color="#800080"/>
<stop offset="1" stop-color="#FF864C"/>
</linearGradient>
</defs>
</svg>
