<svg width="32" height="32" viewBox="0 0 32 32" fill="none" xmlns="http://www.w3.org/2000/svg">
<g clip-path="url(#clip0_34_757)">
<path d="M28.5467 15.44L16.5467 3.43996C16.0667 2.95996 15.4001 2.66663 14.6667 2.66663H5.33341C3.86675 2.66663 2.66675 3.86663 2.66675 5.33329V14.6666C2.66675 15.4 2.96008 16.0666 3.45341 16.56L15.4534 28.56C15.9334 29.04 16.6001 29.3333 17.3334 29.3333C18.0667 29.3333 18.7334 29.04 19.2134 28.5466L28.5467 19.2133C29.0401 18.7333 29.3334 18.0666 29.3334 17.3333C29.3334 16.6 29.0267 15.92 28.5467 15.44ZM7.33341 9.33329C6.22675 9.33329 5.33341 8.43996 5.33341 7.33329C5.33341 6.22663 6.22675 5.33329 7.33341 5.33329C8.44008 5.33329 9.33341 6.22663 9.33341 7.33329C9.33341 8.43996 8.44008 9.33329 7.33341 9.33329Z" fill="url(#paint0_linear_34_757)"/>
</g>
<defs>
<linearGradient id="paint0_linear_34_757" x1="29.3334" y1="15.9999" x2="2.66675" y2="15.9999" gradientUnits="userSpaceOnUse">
<stop stop-color="#800080"/>
<stop offset="1" stop-color="#FF864C"/>
</linearGradient>
<clipPath id="clip0_34_757">
<rect width="32" height="32" fill="white"/>
</clipPath>
</defs>
</svg>
